<?xml version="1.0" encoding="UTF-8"?>
<svg xmlns="http://www.w3.org/2000/svg" width="230" height="134" viewBox="0 0 230 134" fill="none">
  <g clip-path="url(#clip0_2035_9501)">
    <path d="M178.382 72.9798L181.723 81.9375H179.682L179.007 79.9412H175.666L174.964 81.9375H172.988L176.367 72.9798H178.382ZM178.496 78.4696L177.374 75.1808H177.349L176.188 78.4696H178.496Z" fill="#9B8868"></path>
    <path d="M145.151 89.6156V96.9097H149.5V98.5605H143.188V89.6028H145.151V89.6156Z" fill="#9B8868"></path>
    <path d="M153.809 89.6156V98.5733H151.846V89.6156H153.809Z" fill="#9B8868"></path>
    <path d="M156.079 91.2664V89.6156H163.386V91.2664H160.708V98.5605H158.744V91.2664H156.066H156.079Z" fill="#9B8868"></path>
    <path d="M172.338 89.6156V91.2664H167.632V93.1859H171.955V94.7215H167.632V96.9225H172.44V98.5733H165.668V89.6156H172.338Z" fill="#9B8868"></path>
    <path d="M179.823 89.6156C180.218 89.6156 180.588 89.6796 180.906 89.8075C181.225 89.9355 181.506 90.1146 181.735 90.345C181.965 90.5753 182.143 90.8313 182.258 91.1256C182.373 91.4199 182.437 91.7398 182.437 92.0853C182.437 92.61 182.322 93.0707 182.105 93.4546C181.888 93.8385 181.519 94.1328 181.021 94.3376V94.3632C181.264 94.4271 181.468 94.5295 181.621 94.6703C181.774 94.8111 181.914 94.9774 182.003 95.1566C182.092 95.3357 182.182 95.5533 182.22 95.7708C182.271 96.0011 182.296 96.2187 182.309 96.449C182.309 96.5898 182.322 96.7562 182.335 96.9481C182.347 97.1401 182.36 97.332 182.373 97.5368C182.386 97.7415 182.424 97.9335 182.475 98.1126C182.526 98.2918 182.59 98.4453 182.679 98.5733H180.715C180.613 98.2918 180.537 97.9462 180.511 97.5623C180.486 97.1656 180.447 96.7945 180.396 96.4362C180.333 95.9628 180.192 95.63 179.976 95.4125C179.759 95.1949 179.402 95.0926 178.917 95.0926H176.953V98.5861H174.99V89.6284H179.797L179.823 89.6156ZM179.121 93.6721C179.568 93.6721 179.912 93.5698 180.129 93.3778C180.358 93.1731 180.46 92.8531 180.46 92.4053C180.46 91.9574 180.345 91.6503 180.129 91.4583C179.899 91.2664 179.568 91.164 179.121 91.164H176.966V93.6849H179.121V93.6721Z" fill="#9B8868"></path>
    <path d="M189.744 89.6156L193.084 98.5733H191.044L190.368 96.577H187.027L186.326 98.5733H184.35L187.729 89.6156H189.744ZM189.858 95.1054L188.736 91.8166H188.711L187.55 95.1054H189.858Z" fill="#9B8868"></path>
    <path d="M199.906 89.6156C200.301 89.6156 200.671 89.6796 200.99 89.8075C201.309 89.9355 201.589 90.1146 201.819 90.345C202.048 90.5753 202.227 90.8313 202.342 91.1256C202.456 91.4199 202.52 91.7398 202.52 92.0853C202.52 92.61 202.405 93.0707 202.189 93.4546C201.972 93.8385 201.602 94.1328 201.105 94.3376V94.3632C201.347 94.4271 201.551 94.5295 201.704 94.6703C201.857 94.8111 201.997 94.9774 202.087 95.1566C202.176 95.3357 202.265 95.5533 202.303 95.7708C202.354 96.0011 202.38 96.2187 202.393 96.449C202.393 96.5898 202.405 96.7562 202.418 96.9481C202.431 97.1401 202.444 97.332 202.456 97.5368C202.469 97.7415 202.507 97.9335 202.558 98.1126C202.609 98.2918 202.673 98.4453 202.762 98.5733H200.799C200.697 98.2918 200.62 97.9462 200.595 97.5623C200.569 97.1656 200.531 96.7945 200.48 96.4362C200.416 95.9628 200.276 95.63 200.059 95.4125C199.842 95.1949 199.485 95.0926 199.001 95.0926H197.037V98.5861H195.073V89.6284H199.881L199.906 89.6156ZM199.205 93.6721C199.651 93.6721 199.995 93.5698 200.212 93.3778C200.442 93.1731 200.544 92.8531 200.544 92.4053C200.544 91.9574 200.429 91.6503 200.212 91.4583C199.983 91.2664 199.651 91.164 199.205 91.164H197.05V93.6849H199.205V93.6721Z" fill="#9B8868"></path>
    <path d="M203.949 89.6156H206.142L208.233 93.1475L210.312 89.6156H212.492L209.177 95.131V98.5733H207.213V95.0926L203.936 89.6284L203.949 89.6156Z" fill="#9B8868"></path>
    <path d="M153.044 106.251L156.385 115.209H154.345L153.669 113.213H150.328L149.627 115.209H147.65L151.03 106.251H153.044ZM153.159 111.741L152.037 108.452H152.011L150.851 111.741H153.159Z" fill="#9B8868"></path>
    <path d="M163.692 115.132C163.271 115.311 162.838 115.401 162.404 115.401C161.716 115.401 161.104 115.286 160.555 115.043C160.007 114.8 159.548 114.48 159.178 114.057C158.808 113.635 158.515 113.149 158.311 112.586C158.107 112.023 158.005 111.408 158.005 110.756C158.005 110.103 158.107 109.463 158.311 108.887C158.515 108.312 158.795 107.813 159.178 107.39C159.548 106.968 160.007 106.635 160.555 106.392C161.104 106.149 161.716 106.034 162.404 106.034C162.863 106.034 163.31 106.098 163.73 106.239C164.164 106.379 164.546 106.584 164.891 106.853C165.235 107.122 165.516 107.454 165.745 107.838C165.975 108.222 166.102 108.683 166.153 109.195H164.279C164.164 108.696 163.934 108.312 163.603 108.068C163.271 107.825 162.863 107.697 162.391 107.697C161.945 107.697 161.575 107.787 161.269 107.953C160.963 108.12 160.708 108.35 160.517 108.644C160.326 108.939 160.185 109.259 160.096 109.63C160.007 110.001 159.969 110.372 159.969 110.769C159.969 111.165 160.007 111.511 160.096 111.869C160.185 112.227 160.326 112.547 160.517 112.829C160.708 113.11 160.963 113.341 161.269 113.507C161.575 113.673 161.958 113.763 162.391 113.763C163.042 113.763 163.539 113.597 163.896 113.264C164.253 112.931 164.457 112.458 164.521 111.831H162.544V110.359H166.293V115.196H165.044L164.84 114.185C164.495 114.633 164.1 114.953 163.679 115.132H163.692Z" fill="#9B8868"></path>
    <path d="M175.806 106.251V107.902H171.1V109.822H175.423V111.357H171.1V113.558H175.908V115.209H169.137V106.251H175.806Z" fill="#9B8868"></path>
    <path d="M180.435 106.251L184.158 112.253H184.184V106.251H186.02V115.209H184.056L180.346 109.22H180.32V115.209H178.484V106.251H180.435Z" fill="#9B8868"></path>
    <path d="M194.716 108.632C194.602 108.44 194.449 108.273 194.283 108.132C194.104 107.992 193.913 107.877 193.696 107.8C193.48 107.723 193.25 107.685 193.008 107.685C192.561 107.685 192.192 107.774 191.886 107.941C191.58 108.107 191.325 108.337 191.133 108.632C190.942 108.926 190.802 109.246 190.712 109.617C190.623 109.988 190.585 110.359 190.585 110.756C190.585 111.153 190.623 111.498 190.712 111.856C190.802 112.215 190.942 112.535 191.133 112.816C191.325 113.098 191.58 113.328 191.886 113.494C192.192 113.661 192.574 113.75 193.008 113.75C193.607 113.75 194.079 113.571 194.41 113.2C194.742 112.829 194.959 112.343 195.023 111.741H196.922C196.871 112.304 196.744 112.803 196.54 113.264C196.336 113.712 196.055 114.096 195.711 114.416C195.367 114.736 194.971 114.979 194.512 115.145C194.053 115.311 193.556 115.401 192.995 115.401C192.306 115.401 191.694 115.286 191.146 115.043C190.598 114.8 190.139 114.48 189.769 114.057C189.399 113.635 189.106 113.149 188.902 112.586C188.698 112.023 188.596 111.408 188.596 110.756C188.596 110.103 188.698 109.463 188.902 108.887C189.106 108.312 189.386 107.813 189.769 107.39C190.139 106.968 190.598 106.635 191.146 106.392C191.694 106.149 192.306 106.034 192.995 106.034C193.48 106.034 193.951 106.111 194.385 106.251C194.818 106.392 195.214 106.597 195.558 106.866C195.902 107.134 196.196 107.48 196.412 107.877C196.642 108.273 196.782 108.734 196.833 109.259H194.933C194.895 109.028 194.831 108.824 194.704 108.632H194.716Z" fill="#9B8868"></path>
    <path d="M198.542 106.251H200.735L202.827 109.783L204.905 106.251H207.086L203.77 111.767V115.209H201.806V111.728L198.529 106.264L198.542 106.251Z" fill="#9B8868"></path>
    <path d="M229.681 57.8029H124.506V133.316H229.681V57.8029Z" stroke="#9B8868" stroke-width="0.5" stroke-miterlimit="10"></path>
    <path d="M75.8717 46.1578H75.3488L68.565 22.4967L61.6409 46.1578H61.0288L52.3195 16.495C51.2356 12.7584 50.1135 11.2995 48.7363 10.6341V10.4933H59.8939V10.6341C58.3383 11.4787 57.2544 13.2318 58.147 16.5846L63.3241 36.138L67.8382 20.0781L66.8053 16.4822C65.6704 12.6048 64.306 11.3763 62.9416 10.6213V10.4805H74.1885V10.6213C72.824 11.3763 71.8294 13.219 72.7348 16.5718L77.6314 35.8437L83.038 16.4822C83.8796 13.5006 82.1454 11.3763 80.6408 10.6213V10.4805H88.3554V10.6213C87.1313 11.2867 85.4863 12.7967 84.4917 16.431L75.8334 46.145L75.8717 46.1578Z" fill="#7C1D27"></path>
    <path d="M91.5054 26.7452L91.5564 26.7964C92.398 23.9683 94.8463 21.2682 96.9631 21.2682C98.5187 21.2682 99.7811 22.6886 99.7811 24.5697C99.7811 26.3229 98.6463 27.449 97.4221 27.449C95.7772 27.449 95.0248 25.5167 93.8007 25.5167C92.9591 25.5167 92.245 26.3613 91.5946 27.5898V41.7558C91.5946 43.4577 92.296 44.8782 93.4309 45.7739V45.9147H84.5303V45.7739C85.7034 44.8782 86.4558 43.4577 86.4558 41.7558V28.1016C86.4558 25.9774 85.9329 24.9408 84.5303 24.1858V24.0451C86.9786 23.9939 89.9497 22.727 91.4544 21.1658H91.5946V24.1474C91.5946 25.0944 91.5436 26.2205 91.5054 26.7452Z" fill="#7C1D27"></path>
    <path d="M100.023 45.7867C101.158 45.0829 101.808 43.6625 101.808 41.7686V28.3064C101.808 26.6556 101.528 24.9025 99.9722 24.1986V24.0579C102.42 24.0067 105.481 22.6886 106.935 21.1786H107.075V41.7686C107.075 43.6625 107.636 45.1213 108.63 45.7867V45.9275H100.023V45.7867ZM101.018 14.9466C101.018 12.9631 102.433 11.3507 104.167 11.3507C105.902 11.3507 107.317 12.9503 107.317 14.9466C107.317 16.9429 105.902 18.4913 104.167 18.4913C102.433 18.4913 101.018 16.8917 101.018 14.9466Z" fill="#7C1D27"></path>
    <path d="M112.022 23.5332H109.051V23.3029C112.634 21.2298 115.453 18.2482 117.34 14.5115H117.48V21.972H122.568V23.5332H117.48V41.0519C117.48 42.8051 118.373 43.8416 119.928 43.8416C121.063 43.8416 122.134 43.3682 123.359 42.5236L123.448 42.7155C121.803 44.891 119.546 46.6313 116.575 46.6313C114.177 46.6313 112.01 44.9805 112.01 42.1013V23.5332H112.022Z" fill="#7C1D27"></path>
    <path d="M134.338 42.5748C136.646 42.5748 138.762 41.3975 139.897 39.1324L140.127 39.2732C138.903 44.0464 135.613 46.6441 131.94 46.6441C127.324 46.6441 123.001 42.4468 123.001 34.9351C123.001 27.4234 127.184 21.281 132.744 21.281C137.117 21.281 140.318 25.3375 140.318 30.8657V31.7103H128.077V32.1326C128.077 38.5054 130.334 42.5748 134.338 42.5748ZM128.077 30.533H135.001C134.95 25.3887 133.777 22.5095 131.8 22.5095C129.824 22.5095 128.37 25.056 128.077 30.533Z" fill="#7C1D27"></path>
    <path d="M148.734 26.7452L148.785 26.7964C149.627 23.9683 152.075 21.2682 154.192 21.2682C155.748 21.2682 157.01 22.6886 157.01 24.5697C157.01 26.3229 155.875 27.449 154.651 27.449C153.006 27.449 152.254 25.5167 151.03 25.5167C150.188 25.5167 149.474 26.3613 148.824 27.5898V41.7558C148.824 43.4577 149.525 44.8782 150.66 45.7739V45.9147H141.759V45.7739C142.932 44.8782 143.685 43.4577 143.685 41.7558V28.1016C143.685 25.9774 143.162 24.9408 141.759 24.1858V24.0451C144.208 23.9939 147.179 22.727 148.683 21.1658H148.824V24.1474C148.824 25.0944 148.773 26.2205 148.734 26.7452Z" fill="#7C1D27"></path>
    <path d="M164.036 46.5802C161.869 46.5802 159.191 46.1963 156.36 45.3005L158.859 38.403H158.999C160.173 42.9843 162.43 45.3005 165.35 45.3005C167.798 45.3005 169.303 43.7009 169.303 41.4743C169.303 38.6462 166.574 37.5584 163.794 36.2276C160.874 34.8071 157.865 32.9644 157.865 28.8183C157.865 24.6721 161.346 21.2554 166.293 21.2554C167.938 21.2554 169.877 21.4857 171.521 21.9208L169.877 28.0121H169.736C168.984 24.6081 167.058 22.5351 164.789 22.5351C162.723 22.5351 161.307 24.237 161.307 26.131C161.307 28.9206 164.279 29.9572 167.148 31.3776C169.966 32.7981 172.848 34.5384 172.848 38.6974C172.848 43.5089 169.175 46.5802 164.049 46.5802H164.036Z" fill="#7C1D27"></path>
    <path d="M182.156 0.319916H41.6851V57.8029H182.156V0.319916Z" stroke="#9B8868" stroke-width="0.5" stroke-miterlimit="10"></path>
    <path d="M10.7368 103.41V103.27C12.1012 102.566 13.1851 100.902 13.1851 98.778V72.6087C13.1851 70.9067 12.3818 68.8721 10.7368 68.1171V67.9763H21.1421V68.1171C19.4971 68.8721 18.6938 70.9067 18.6938 72.6087V80.8242H29.1883V72.6087C29.1883 70.9067 28.385 68.8721 26.74 68.1171V67.9763H37.1836V68.1171C35.5386 68.8721 34.6843 70.9067 34.6843 72.6087V98.778C34.6843 100.902 35.8191 102.553 37.1836 103.27V103.41H26.74V103.27C28.0534 102.566 29.1883 100.902 29.1883 98.778V82.1039H18.6938V98.778C18.6938 100.902 19.7267 102.553 21.1421 103.27V103.41H10.7368Z" fill="#7C1D27"></path>
    <path d="M48.0098 78.7512C53.4674 78.7512 57.701 84.5097 57.701 91.3559C57.701 98.2022 53.3654 104.114 48.0098 104.114C42.6541 104.114 38.2676 98.215 38.2676 91.3559C38.2676 84.4969 42.6031 78.7512 48.0098 78.7512ZM48.0098 103.027C50.6876 103.027 52.154 98.1638 52.154 91.3559C52.154 84.5481 50.7896 79.8261 48.0098 79.8261C45.2299 79.8261 43.9165 84.5993 43.9165 91.3559C43.9165 98.1126 45.3319 103.027 48.0098 103.027Z" fill="#7C1D27"></path>
    <path d="M72.7604 98.6373L72.7094 98.5861C70.8732 101.094 67.7236 104.114 65.033 104.114C62.3424 104.114 60.9397 102.08 60.9397 99.1491V85.8789C60.9397 83.5627 60.3787 82.3854 59.1035 81.6816V81.5408C61.5008 81.4896 64.4209 80.2228 65.8873 78.6616H66.0276V97.268C66.0276 99.2515 66.78 100.48 68.2464 100.531C69.3303 100.582 70.9242 99.725 72.7222 98.023V85.8789C72.7222 83.5627 72.1611 82.3854 70.886 81.6816V81.5408C73.2833 81.4896 76.2034 80.2228 77.7081 78.6616H77.7973V98.1254C77.7973 100.442 78.3584 101.568 79.6845 102.323V102.463C77.2362 102.515 74.8389 103.027 72.8625 104.217H72.7222V101.056C72.7222 100.16 72.7222 99.1619 72.7732 98.6501L72.7604 98.6373Z" fill="#7C1D27"></path>
    <path d="M87.9728 104.063C85.8051 104.063 83.1272 103.679 80.2964 102.783L82.7957 95.886H82.936C84.1091 100.467 86.3789 102.783 89.2862 102.783C91.7345 102.783 93.2392 101.184 93.2392 98.9572C93.2392 96.1291 90.5104 95.0414 87.7306 93.7105C84.8104 92.2901 81.8011 90.4474 81.8011 86.3012C81.8011 82.1551 85.2823 78.7383 90.2299 78.7383C91.8748 78.7383 93.813 78.9687 95.458 79.4038L93.813 85.495H93.6728C92.9204 82.0911 90.9822 80.018 88.7252 80.018C86.6594 80.018 85.244 81.72 85.244 83.6139C85.244 86.4036 88.2024 87.4401 91.0842 88.8606C93.9023 90.281 96.7842 92.0214 96.7842 96.1803C96.7842 100.992 93.1117 104.063 87.9856 104.063H87.9728Z" fill="#7C1D27"></path>
    <path d="M109.574 100.058C111.882 100.058 113.999 98.8804 115.134 96.6154L115.364 96.7562C114.139 101.529 110.85 104.127 107.177 104.127C102.561 104.127 98.2383 99.9298 98.2383 92.4181C98.2383 84.9064 102.421 78.7639 107.98 78.7639C112.354 78.7639 115.555 82.8205 115.555 88.3487V89.1933H103.313V89.6156C103.313 95.9884 105.57 100.058 109.574 100.058ZM103.313 88.016H110.237C110.186 82.8717 109.013 79.9924 107.037 79.9924C105.06 79.9924 103.594 82.539 103.313 88.016Z" fill="#7C1D27"></path>
    <path d="M124.506 57.8029H0.318848V115.286H124.506V57.8029Z" stroke="#9B8868" stroke-width="0.5" stroke-miterlimit="10"></path>
  </g>
  <defs>
    <clipPath id="clip0_2035_9501">
      <rect width="230" height="133.636" fill="white"></rect>
    </clipPath>
  </defs>
</svg>
